<?xml version="1.0" encoding="UTF-8"?> <svg xmlns="http://www.w3.org/2000/svg" width="96" height="96" viewBox="0 0 96 96" fill="none"><path fill-rule="evenodd" clip-rule="evenodd" d="M72.983 59.9981C70.431 59.9981 68.479 61.9814 68.479 65.1029C68.479 66.9372 69.5414 68.8866 70.8584 70.1398L70.6748 71.6677L66.9798 73.7901C66.3975 74.1235 66.0249 74.7636 66.0249 75.443V82.1212H64.1049V75.443C64.1049 74.0774 64.8442 72.8005 66.0256 72.124C66.0257 72.124 66.0256 72.1241 66.0256 72.124L68.6786 70.6001C67.4811 69.1197 66.559 67.1368 66.559 65.1029C66.559 61.1052 69.1954 58.0781 72.983 58.0781C76.7663 58.0781 79.3942 61.1075 79.3942 65.1029C79.3942 67.1369 78.472 69.1197 77.2784 70.5997L79.9258 72.123C81.1248 72.8014 81.8546 74.0812 81.8546 75.443V82.3129H79.9346V75.443C79.9346 74.7612 79.5667 74.125 78.9786 73.7931L78.9715 73.7891L75.2841 71.6674L75.0996 70.1413C76.4116 68.8874 77.4742 66.9374 77.4742 65.1029C77.4742 61.979 75.5264 59.9981 72.983 59.9981Z" fill="#FF5F46"></path><path fill-rule="evenodd" clip-rule="evenodd" d="M43.4963 12.42C23.8574 12.42 7.94002 28.3376 7.94002 47.9699C7.94002 67.6021 23.8574 83.5197 43.4963 83.5197C47.7422 83.5197 51.8111 82.779 55.5862 81.4108L56.2405 83.2159C52.2573 84.6595 47.9672 85.4397 43.4963 85.4397C22.7973 85.4397 6.02002 68.6627 6.02002 47.9699C6.02002 27.277 22.7973 10.5 43.4963 10.5C64.189 10.5 80.9661 27.2771 80.9661 47.9699H79.0461C79.0461 28.3375 63.1286 12.42 43.4963 12.42Z" fill="#FF5F46"></path><path fill-rule="evenodd" clip-rule="evenodd" d="M27.2976 31.8609C25.1136 31.8609 23.3432 33.6314 23.3432 35.8153C23.3432 37.9993 25.1136 39.7698 27.2976 39.7698C29.4815 39.7698 31.252 37.9993 31.252 35.8153C31.252 33.6314 29.4815 31.8609 27.2976 31.8609ZM21.4232 35.8153C21.4232 32.571 24.0532 29.9409 27.2976 29.9409C30.5419 29.9409 33.172 32.571 33.172 35.8153C33.172 39.0597 30.5419 41.6898 27.2976 41.6898C24.0532 41.6898 21.4232 39.0597 21.4232 35.8153Z" fill="#FF5F46"></path><path fill-rule="evenodd" clip-rule="evenodd" d="M18.51 51.8951C16.326 51.8951 14.5556 53.6656 14.5556 55.8495C14.5556 58.0335 16.326 59.8039 18.51 59.8039C20.694 59.8039 22.4644 58.0335 22.4644 55.8495C22.4644 53.6656 20.694 51.8951 18.51 51.8951ZM12.6356 55.8495C12.6356 52.6052 15.2657 49.9751 18.51 49.9751C21.7544 49.9751 24.3844 52.6052 24.3844 55.8495C24.3844 59.0939 21.7544 61.7239 18.51 61.7239C15.2657 61.7239 12.6356 59.0939 12.6356 55.8495Z" fill="#FF5F46"></path><path fill-rule="evenodd" clip-rule="evenodd" d="M61.4806 24.2896C59.2966 24.2896 57.5261 26.0601 57.5261 28.2441C57.5261 30.428 59.2966 32.1985 61.4806 32.1985C63.6645 32.1985 65.435 30.428 65.435 28.2441C65.435 26.0601 63.6645 24.2896 61.4806 24.2896ZM55.6061 28.2441C55.6061 24.9997 58.2362 22.3696 61.4806 22.3696C64.7249 22.3696 67.355 24.9997 67.355 28.2441C67.355 31.4884 64.7249 34.1185 61.4806 34.1185C58.2362 34.1185 55.6061 31.4884 55.6061 28.2441Z" fill="#FF5F46"></path><path fill-rule="evenodd" clip-rule="evenodd" d="M52.1999 46.5328C50.016 46.5328 48.2455 48.3032 48.2455 50.4872C48.2455 52.6712 50.016 54.4416 52.1999 54.4416C54.3839 54.4416 56.1543 52.6712 56.1543 50.4872C56.1543 48.3032 54.3839 46.5328 52.1999 46.5328ZM46.3255 50.4872C46.3255 47.2429 48.9556 44.6128 52.1999 44.6128C55.4443 44.6128 58.0743 47.2429 58.0743 50.4872C58.0743 53.7316 55.4443 56.3616 52.1999 56.3616C48.9556 56.3616 46.3255 53.7316 46.3255 50.4872Z" fill="#FF5F46"></path><path fill-rule="evenodd" clip-rule="evenodd" d="M36.4797 61.4898C34.2957 61.4898 32.5253 63.2603 32.5253 65.4442C32.5253 67.6282 34.2957 69.3987 36.4797 69.3987C38.6637 69.3987 40.4341 67.6282 40.4341 65.4442C40.4341 63.2603 38.6637 61.4898 36.4797 61.4898ZM30.6053 65.4442C30.6053 62.1999 33.2354 59.5698 36.4797 59.5698C39.7241 59.5698 42.3541 62.1999 42.3541 65.4442C42.3541 68.6886 39.7241 71.3187 36.4797 71.3187C33.2354 71.3187 30.6053 68.6886 30.6053 65.4442Z" fill="#FF5F46"></path><path fill-rule="evenodd" clip-rule="evenodd" d="M29.391 39.9282L36.0309 60.1035L34.2072 60.7038L27.5673 40.5284L29.391 39.9282Z" fill="#FF5F46"></path><path fill-rule="evenodd" clip-rule="evenodd" d="M56.7664 29.8464L32.271 36.1412L31.7932 34.2816L56.2886 27.9868L56.7664 29.8464Z" fill="#FF5F46"></path><path fill-rule="evenodd" clip-rule="evenodd" d="M53.84 45.9184L59.1123 32.792L60.894 33.5076L55.6217 46.634L53.84 45.9184Z" fill="#FF5F46"></path><path fill-rule="evenodd" clip-rule="evenodd" d="M31.2612 37.3633L48.222 46.6745L47.298 48.3575L30.3372 39.0463L31.2612 37.3633Z" fill="#FF5F46"></path><path fill-rule="evenodd" clip-rule="evenodd" d="M40.1624 62.509L48.8409 53.9136L50.192 55.2777L41.5135 63.8732L40.1624 62.509Z" fill="#FF5F46"></path><path fill-rule="evenodd" clip-rule="evenodd" d="M22.9966 71.3315L31.6751 66.8452L32.5568 68.5508L23.8782 73.037L22.9966 71.3315Z" fill="#FF5F46"></path><path fill-rule="evenodd" clip-rule="evenodd" d="M33.9779 19.8901L29.9518 31.2271L28.1425 30.5846L32.1686 19.2476L33.9779 19.8901Z" fill="#FF5F46"></path><path fill-rule="evenodd" clip-rule="evenodd" d="M52.7362 77.1808L39.9038 69.1925L40.9185 67.5625L53.7509 75.5508L52.7362 77.1808Z" fill="#FF5F46"></path><path fill-rule="evenodd" clip-rule="evenodd" d="M25.6157 41.0921L21.2445 51.6623L19.4702 50.9286L23.8414 40.3584L25.6157 41.0921Z" fill="#FF5F46"></path><path fill-rule="evenodd" clip-rule="evenodd" d="M52.4008 19.8643L57.9351 23.9671L56.7916 25.5095L51.2573 21.4066L52.4008 19.8643Z" fill="#FF5F46"></path><path fill-rule="evenodd" clip-rule="evenodd" d="M70.5068 40.7447C69.8007 37.4602 68.3159 33.8423 65.2313 31.1877L66.4837 29.7324C70.0007 32.7591 71.6282 36.826 72.3839 40.3412C73.0727 43.5449 73.0527 46.3706 73.0437 47.6432C73.0428 47.7675 73.042 47.8769 73.042 47.9705V53.5212L72.1457 53.5808C64.3773 54.0971 58.2413 60.5576 58.2413 68.459C58.2413 76.6968 64.9179 83.3734 73.1557 83.3734C81.3935 83.3734 88.0701 76.6968 88.0701 68.459C88.0701 62.5284 84.6075 57.406 79.5917 55.0033L79.0465 54.7421V47.9705H80.9665V53.5452C86.3277 56.3577 89.9901 61.9789 89.9901 68.459C89.9901 77.7571 82.4539 85.2934 73.1557 85.2934C63.8575 85.2934 56.3213 77.7571 56.3213 68.459C56.3213 59.8462 62.7804 52.7504 71.122 51.7485V47.9705C71.122 47.8724 71.1228 47.7601 71.1236 47.6344C71.1319 46.3641 71.1491 43.7322 70.5068 40.7447Z" fill="#FF5F46"></path></svg> 