<svg width="150" height="150" viewBox="0 0 150 150" fill="none" xmlns="http://www.w3.org/2000/svg">
<path d="M116.8 43.8H94.8V35.3C94.8 30.9 91.2 27.3 86.8 27.3H63.2C58.7999 27.3 55.2 30.9 55.2 35.3V43.8H33.2C28.5 43.8 24.7 47.6 24.7 52.3V114.2C24.7 118.9 28.5 122.7 33.2 122.7H73.3V119.7H33.2C30.2 119.7 27.7 117.2 27.7 114.2V63H40.7V68.1C40.7 70.3 42.5 72.2 44.7999 72.2H49.2999C51.5 72.2 53.4 70.4 53.4 68.1V63H67.5V84H54.5999V98H67.5V112H73V109H70.5V95H57.5999V87H70.5V60H53.4V56.9001C53.4 54.7001 51.5999 52.8 49.2999 52.8H44.7999C42.5999 52.8 40.7 54.6001 40.7 56.9001V60H27.7V52.3C27.7 49.3 30.2 46.8 33.2 46.8H58.2V35.3C58.2 32.6 60.4 30.3 63.2 30.3H86.6999C89.3999 30.3 91.7 32.5 91.7 35.3V43.8H65.1999V46.8H116.8C119.8 46.8 122.3 49.3 122.3 52.3V60H109.3V56.9001C109.3 54.7001 107.5 52.8 105.2 52.8H100.7C98.5 52.8 96.5999 54.6001 96.5999 56.9001V60H76.1999V63H96.5999V68.1C96.5999 70.3 98.3999 72.2 100.7 72.2H105.2C107.4 72.2 109.3 70.4 109.3 68.1V63H122.3V114.2C122.3 117.2 119.8 119.7 116.8 119.7H81.5V98.1001H95.3999V84H81.5V69.1H76.1999V72.1H78.5V87H92.3999V95H78.5V122.6H116.8C121.5 122.6 125.3 118.8 125.3 114.1V52.3C125.3 47.6 121.4 43.8 116.8 43.8ZM43.7999 56.9001C43.7999 56.3001 44.3 55.8 44.9 55.8H49.4C50 55.8 50.5 56.3001 50.5 56.9001V68.1C50.5 68.7 50 69.2 49.4 69.2H44.9C44.3 69.2 43.7999 68.7 43.7999 68.1V56.9001ZM106.2 68.1C106.2 68.7 105.7 69.2 105.1 69.2H100.6C99.9999 69.2 99.5 68.7 99.5 68.1V56.9001C99.5 56.3001 99.9999 55.8 100.6 55.8H105.1C105.7 55.8 106.2 56.3001 106.2 56.9001V68.1Z" fill="#FF5F46"/>
</svg>
