<?xml version="1.0" encoding="UTF-8"?> <svg xmlns="http://www.w3.org/2000/svg" width="96" height="96" viewBox="0 0 96 96" fill="none"><path fill-rule="evenodd" clip-rule="evenodd" d="M73.0241 60.0333C70.4371 60.0333 68.4801 62.0127 68.4801 65.1533C68.4801 66.9977 69.532 68.9381 70.8717 70.2195L70.6829 71.7477L66.9867 73.8507C66.4308 74.1989 66.0481 74.8525 66.0481 75.5213V82.1773H64.1281V75.5213C64.1281 74.1471 64.8917 72.8854 65.993 72.2077L66.0214 72.1909L68.6875 70.674C67.4783 69.1802 66.5601 67.1987 66.5601 65.1533C66.5601 61.1258 69.2111 58.1133 73.0241 58.1133C76.7801 58.1133 79.4241 61.1336 79.4241 65.1533C79.4241 67.1987 78.5059 69.1802 77.2967 70.674L79.9644 72.1918C81.1477 72.8679 81.9201 74.1394 81.9201 75.5213V82.3693H80.0001V75.5213C80.0001 74.8554 79.6208 74.2071 79.0125 73.8592C79.0122 73.859 79.012 73.8589 79.0118 73.8588L75.3014 71.7477L75.1125 70.2195C76.4522 68.9381 77.5041 66.9977 77.5041 65.1533C77.5041 62.005 75.5401 60.0333 73.0241 60.0333Z" fill="#FF5F46"></path><path fill-rule="evenodd" clip-rule="evenodd" d="M43.5201 12.4166C23.8892 12.4166 7.93607 28.3079 7.93607 48.0006C7.93607 67.6315 23.8274 83.5846 43.5201 83.5846C47.7575 83.5846 51.8075 82.837 55.6104 81.4655L56.2618 83.2716C52.2566 84.7161 47.9866 85.5046 43.5201 85.5046C22.7648 85.5046 6.01607 68.6897 6.01607 48.0006C6.01607 27.2453 22.831 10.4966 43.5201 10.4966C64.2754 10.4966 81.0241 27.3115 81.0241 48.0006H79.1041C79.1041 28.3697 63.2128 12.4166 43.5201 12.4166Z" fill="#FF5F46"></path><path fill-rule="evenodd" clip-rule="evenodd" d="M51.072 31.4883H60.032V52.8643H58.112V33.4083H52.992V65.2163H44.608V44.2883H39.488V65.2163H31.04V49.9843H26.112V65.2163H19.904V63.2963H24.192V48.0643H32.96V63.2963H37.568V42.3683H46.528V63.2963H51.072V31.4883Z" fill="#FF5F46"></path><path fill-rule="evenodd" clip-rule="evenodd" d="M43.4561 20.3531C28.1783 20.3531 15.8081 32.7233 15.8081 48.0011C15.8081 53.8833 17.6031 59.3246 20.6926 63.7735L19.1156 64.8687C15.8051 60.1016 13.8881 54.2789 13.8881 48.0011C13.8881 31.6629 27.1179 18.4331 43.4561 18.4331C59.7943 18.4331 73.0241 31.6629 73.0241 48.0011H71.1041C71.1041 32.7233 58.7339 20.3531 43.4561 20.3531Z" fill="#FF5F46"></path><path fill-rule="evenodd" clip-rule="evenodd" d="M71.168 51.8003V48H73.088V53.5674L72.1948 53.6297C64.4316 54.1713 58.24 60.6105 58.24 68.544C58.24 76.7818 64.9142 83.456 73.152 83.456C81.3898 83.456 88.064 76.7818 88.064 68.544C88.064 62.5936 84.5787 57.4802 79.5832 55.0728L79.04 54.811V48H80.96V53.6172C86.2972 56.4315 89.984 62.0408 89.984 68.544C89.984 77.8422 82.4502 85.376 73.152 85.376C63.8538 85.376 56.32 77.8422 56.32 68.544C56.32 59.8887 62.8413 52.8242 71.168 51.8003Z" fill="#FF5F46"></path><path fill-rule="evenodd" clip-rule="evenodd" d="M53.1198 70.5299H24.3838V68.6099H53.1198V70.5299Z" fill="#FF5F46"></path></svg> 